<?xml version="1.0" encoding="UTF-8"?>
<svg id="Layer_1" data-name="Layer 1" xmlns="http://www.w3.org/2000/svg" viewBox="0 0 1080 1080">
  <defs>
    <style>
      .cls-1 {
        fill: #ce3c3c;
      }

      .cls-1, .cls-2, .cls-3, .cls-4 {
        stroke-width: 0px;
      }

      .cls-2 {
        fill: #0a1018;
      }

      .cls-3 {
        fill: #f2df91;
      }

      .cls-4 {
        fill: #fff;
      }
    </style>
  </defs>
  <path class="cls-4" d="M887.38,706.67c-3.03-6.94-6.63-13.61-10.76-19.98-19.37-29.87-11.33-65.05-4.22-96.06.97-4.26,1.94-8.43,2.77-12.52,1.85-8.69,3.03-17.26,3.65-25.69,2.24-27.89-1.28-54.2-5.84-78.89-3.43,1.54-6.86,2.9-10.33,4.13-30,10.54-69.75,11.29-97.33-4.08-13.66-7.64-26.44-20.21-35.31-33.07-5.14-7.47-7.6-38.13-3.96-47.13-11.02,27.05-29.42,65.35-61.49,83.93-33.95,19.68-90.21,22.53-120.48-2.98-3.64-3.08-6.98-6.59-9.22-10.77-2.59-4.78-3.65-10.41-2.99-15.85,10.19,2.02,20.12,5.53,30.4,7.11,10.32,1.54,21.48.93,30.17-4.78,11.07-7.21,16.03-21.13,16.61-34.31.17-3.91,0-7.99-1.76-11.5-9.05-17.97-43.44-17.93-59.96-18.28-41.11-.83-82.44.97-115.6,28.77-32.06,26.88-51.92,57.06-20.47,93.69,9.23,10.72-8.56,12.25-14.45,11.99-32.15-1.36-65.93,29.82-75.1,58.24-16.7,51.7-7.3,103.39,5.31,154.74,2.2,8.78,11.16,31.49,2.06,36.81-20.16,11.77-61.97,6.45-61.97,6.45-11.95-15.02,8.92-85.25-69.57-87.45-12.35,1.28-22.8,5.8-30.09,12.83-.22.17-.4.39-.57.61-1.14,1.28-2.15,2.51-3.12,3.52-1.05,1.36-1.98,2.76-2.81,4.26-11.07,19.72-6.46,43.92,1.54,60.04,9.26,18.75,33.6,28.33,57.89,22.66.44-.08,3.47-1.01,5.75-1.67.4-.13.75-.21,1.1-.3.88-.27,1.32-.4,1.49-.44l.05.09c5.88-1.06,9.61.87,11.06,5.75,0,.04.05.09.05.13,14.18,27.32,31.45,52.84,49.94,73.97,36.63,41.77,85.34,75.5,140.81,97.59,139.98,55.7,346.9,35.89,437.12-93.33,35.27-50.51,42.3-116.62,19.63-168.23ZM232.06,773.7c-4.09,6.59-9.97,10.32-16.08,10.32-.79,0-1.62-.09-2.46-.22-5-.83-9.53-4.3-12.07-9.31-1.81-3.51-2.38-7.07-2.86-9.93-.75-4.78,2.5-9.26,7.29-10.05,4.75-.75,9.31,2.46,10.06,7.24.22,1.23.4,2.46.66,3.47.17-.26.39-.48.57-.79,4.61-7.42,5.45-18.05,2.5-31.58-.35-1.71-1.31-6.23-3.16-7.6-.83-.61-2.5-.96-4.13-.96-.61,0-1.1.09-1.4.13,0,.13-.05.31-.05.53-.08,1.58.05,3.42.18,5.4.31,4.57.7,10.28-1.71,15.94-2.2,5.23-5.98,6.94-8.04,7.47-4.53,1.23-10.76-.22-14.5-7.95-1.4-2.9-2.72-5.84-3.86-8.87-.09.09-.22.17-.31.22-4,2.76-9.49,1.71-12.21-2.29-2.72-3.99-3.6-9.31-2.24-13.92,1.14-4,3.91-7.2,7.6-8.78,5.75-2.46,12.82-.58,17.22,4.65.44.53.87,1.1,1.27,1.71.53-1.71,1.27-3.2,2.2-4.56,3.25-4.62,8.82-7.16,15.72-7.25,5.8,0,10.89,1.49,14.85,4.48,6.23,4.7,8.47,12.08,9.75,17.92,3.95,18.18,2.33,33.16-4.79,44.58h0ZM746.92,661.22c-24.99,3.51-49.06-21.09-53.81-54.86-4.74-33.82,11.69-64.04,36.68-67.56,24.99-3.51,49.06,21.04,53.8,54.86,4.75,33.82-11.68,64.04-36.67,67.56ZM678.44,513.68c8.92-12.96,22.8-22.49,38.08-26.27,15.29-3.73,32.02-1.66,45.95,5.63,4.26,2.28,5.93,7.59,3.64,11.86-2.24,4.3-7.55,5.97-11.86,3.68-10.14-5.35-22.4-6.85-33.55-4.08-11.16,2.72-21.31,9.71-27.81,19.15-1.71,2.5-4.48,3.82-7.24,3.82-1.72,0-3.47-.53-5.01-1.58-4-2.72-4.96-8.21-2.2-12.21h0ZM625.43,736.67c.44-4.83,4.7-8.34,9.53-7.9,18.05,1.71,36.41-1.67,53.06-9.75,4.21-2.02,8.87-4.61,11.94-8.66-.57-.22-1.31-.44-2.28-.65-25.87-5.89-48.58-27.15-59.29-55.43-1.72-4.57.57-9.62,5.13-11.34,4.53-1.71,9.58.57,11.29,5.1,8.52,22.53,26.88,40.01,46.78,44.54,16.56,3.77,17.09,14.71,16.82,18-.26,3.96-2.02,6.94-3.29,8.83-5.4,7.95-13.22,12.43-19.46,15.42-16.25,7.86-33.91,11.95-51.56,11.95-3.61,0-7.16-.18-10.77-.53-4.83-.44-8.38-4.74-7.9-9.58h0ZM472.36,554.92c-1.71,2.46-4.44,3.78-7.25,3.78-1.71,0-3.47-.48-4.96-1.54-4-2.76-5.01-8.21-2.24-12.21,8.91-12.95,22.79-22.53,38.08-26.26,15.28-3.78,32.02-1.72,45.94,5.62,4.31,2.24,5.93,7.55,3.69,11.86-2.28,4.3-7.6,5.93-11.86,3.69-10.19-5.36-22.4-6.85-33.55-4.13-11.16,2.72-21.31,9.75-27.85,19.19h0ZM479.25,634.77c-4.74-33.77,11.69-64.04,36.68-67.55,24.99-3.47,49.1,21.08,53.85,54.86,4.7,33.82-11.68,64.04-36.68,67.55-24.99,3.52-49.1-21.04-53.85-54.86h0ZM793.39,809.63c-6.33,38.04-30.31,62.85-61.32,82.7-28.9,18.5-60.57,26.09-100.4,26.36-29.56-1.06-63.6-8.04-95.1-25.17-20.68-11.24-32.85-28.02-34.87-51.92-2.15-25.25,13.22-42.91,38.65-44.09,20.47-1.01,40.54,2.59,60.31,6.5,48,9.53,91.18-.93,131.19-27.76,6.15-4.13,12.08-8.52,18.23-12.7,15.81-10.8,32.06-6.19,39.97,11.64,4.87,11.03,5.27,22.62,3.34,34.44h0Z"/>
  <path class="cls-3" d="M236.85,729.12c3.95,18.18,2.33,33.16-4.79,44.58-4.09,6.59-9.97,10.32-16.08,10.32-.79,0-1.62-.09-2.46-.22-5-.83-9.53-4.3-12.07-9.31-1.81-3.51-2.38-7.07-2.86-9.93-.75-4.78,2.5-9.26,7.29-10.05,4.75-.75,9.31,2.46,10.06,7.24.22,1.23.4,2.46.66,3.47.17-.26.39-.48.57-.79,4.61-7.42,5.45-18.05,2.5-31.58-.35-1.71-1.31-6.23-3.16-7.6-.83-.61-2.5-.96-4.13-.96-.61,0-1.1.09-1.4.13,0,.13-.05.31-.05.53-.08,1.58.05,3.42.18,5.4.31,4.57.7,10.28-1.71,15.94-2.2,5.23-5.98,6.94-8.04,7.47-4.53,1.23-10.76-.22-14.5-7.95-1.4-2.9-2.72-5.84-3.86-8.87-.09.09-.22.17-.31.22-4,2.76-9.49,1.71-12.21-2.29-2.72-3.99-3.6-9.31-2.24-13.92,1.14-4,3.91-7.2,7.6-8.78,5.75-2.46,12.82-.58,17.22,4.65.44.53.87,1.1,1.27,1.71.53-1.71,1.27-3.2,2.2-4.56,3.25-4.62,8.82-7.16,15.72-7.25,5.8,0,10.89,1.49,14.85,4.48,6.23,4.7,8.47,12.08,9.75,17.92h0Z"/>
  <path class="cls-3" d="M500.21,535.73c-11.16,2.72-21.31,9.75-27.85,19.19-1.71,2.46-4.44,3.78-7.25,3.78-1.71,0-3.47-.48-4.96-1.54-4-2.76-5.01-8.21-2.24-12.21,8.91-12.95,22.79-22.53,38.08-26.26,15.28-3.78,32.02-1.72,45.94,5.62,4.31,2.24,5.93,7.55,3.69,11.86-2.28,4.3-7.6,5.93-11.86,3.69-10.19-5.36-22.4-6.85-33.55-4.13h0Z"/>
  <path class="cls-3" d="M479.25,634.77c-4.74-33.77,11.69-64.04,36.68-67.55,24.99-3.47,49.1,21.08,53.85,54.86,4.7,33.82-11.68,64.04-36.68,67.55-24.99,3.52-49.1-21.04-53.85-54.86h0Z"/>
  <path class="cls-3" d="M625.43,736.67c.44-4.83,4.7-8.34,9.53-7.9,18.05,1.71,36.41-1.67,53.06-9.75,4.21-2.02,8.87-4.61,11.94-8.66-.57-.22-1.31-.44-2.28-.65-25.87-5.89-48.58-27.15-59.29-55.43-1.72-4.57.57-9.62,5.13-11.34,4.53-1.71,9.58.57,11.29,5.1,8.52,22.53,26.88,40.01,46.78,44.54,16.56,3.77,17.09,14.71,16.82,18-.26,3.96-2.02,6.94-3.29,8.83-5.4,7.95-13.22,12.43-19.46,15.42-16.25,7.86-33.91,11.95-51.56,11.95-3.61,0-7.16-.18-10.77-.53-4.83-.44-8.38-4.74-7.9-9.58h0Z"/>
  <path class="cls-3" d="M678.44,513.68c8.92-12.96,22.8-22.49,38.08-26.27,15.29-3.73,32.02-1.66,45.95,5.63,4.26,2.28,5.93,7.59,3.64,11.86-2.24,4.3-7.55,5.97-11.86,3.68-10.14-5.35-22.4-6.85-33.55-4.08-11.16,2.72-21.31,9.71-27.81,19.15-1.71,2.5-4.48,3.82-7.24,3.82-1.72,0-3.47-.53-5.01-1.58-4-2.72-4.96-8.21-2.2-12.21h0Z"/>
  <path class="cls-3" d="M783.59,593.66c4.75,33.82-11.68,64.04-36.67,67.56-24.99,3.51-49.06-21.09-53.81-54.86-4.74-33.82,11.69-64.04,36.68-67.56,24.99-3.51,49.06,21.04,53.8,54.86Z"/>
  <path class="cls-3" d="M790.05,775.19c4.87,11.03,5.27,22.62,3.34,34.44-6.33,38.04-30.31,62.85-61.32,82.7-28.9,18.5-60.57,26.09-100.4,26.36-29.56-1.06-63.6-8.04-95.1-25.17-20.68-11.24-32.85-28.02-34.87-51.92-2.15-25.25,13.22-42.91,38.65-44.09,20.47-1.01,40.54,2.59,60.31,6.5,48,9.53,91.18-.93,131.19-27.76,6.15-4.13,12.08-8.52,18.23-12.7,15.81-10.8,32.06-6.19,39.97,11.64h0Z"/>
  <path class="cls-4" d="M886.55,667.8c-7.77-19.41-3.95-42.08,1.05-64.61.83.09,1.63.22,2.15.48.79.35,1.67,1.32,2.46,2.64,1.89,3.07,2.72,7.2,2.37,11.64-.35,4.13-1.63,8.65-4,13.84-2.02,4.44-.04,9.66,4.35,11.64,1.19.53,2.42.79,3.64.79,3.34,0,6.54-1.93,7.99-5.14,3.21-7.12,5.01-13.57,5.53-19.77.61-8.17-1.05-15.86-4.88-22.14-2.59-4.3-6.06-7.55-10.01-9.4-1.93-.92-3.91-1.45-5.75-1.76.31-1.45.61-2.85.92-4.26.26-1.23.48-2.46.7-3.65,8.13.09,16.25,2.94,21.3,7.91,11.81,11.64,9.49,31.23,3.34,45.72-6.9,16.38-19.37,28.11-31.19,36.06h.03Z"/>
  <path class="cls-2" d="M882.15,884.96c-62.8,89.99-178.67,129.92-292.17,129.92-58.41,0-116.17-10.54-165.85-30.31-58.06-23.1-109.06-58.5-147.49-102.34-18.36-20.99-35.49-45.98-49.81-72.69-1.23-2.2-2.41-4.39-3.56-6.63l7.74-3.95,6.41-6.15.92.96.57,1.1c.27.57.57,1.1.92,1.67,0,.04.05.09.05.13,14.18,27.32,31.45,52.84,49.94,73.97,36.63,41.77,85.34,75.5,140.81,97.59,139.98,55.7,346.9,35.89,437.12-93.33,35.27-50.51,42.3-116.62,19.63-168.23-3.03-6.94-6.63-13.61-10.76-19.98-19.37-29.87-11.33-65.05-4.22-96.06.97-4.26,1.94-8.43,2.77-12.52,1.85-8.69,3.03-17.26,3.65-25.69,2.24-27.89-1.28-54.2-5.84-78.89-.18-.96-.36-1.93-.53-2.89-6.06-32.11-14.89-59.3-27.01-83.24-25.88-51.12-76.12-87.93-141.57-103.61-86.87-20.82-183.9-16.95-249.96-10.01-100.62,10.49-174.02,42.78-218.12,95.92-24.37,29.34-40.45,67.07-47.7,112.09-5.62,35.18-6.1,74.32-1.36,119.65.13,1.62.31,3.07.48,4.52l.31,2.64-17.48,1.88-.26-2.45c-.22-1.63-.4-3.26-.53-4.88-4.87-46.78-4.39-87.45,1.54-124.12,7.73-48.23,25.08-88.77,51.47-120.53,47.18-56.83,124.48-91.22,229.81-102.21,67.46-7.07,166.59-10.98,255.93,10.41,70.5,16.91,124.87,56.97,153.07,112.8,12.65,24.81,21.88,52.84,28.2,85.69.18.7.31,1.45.44,2.2,4.96,26.39,9,54.64,6.76,85.03-.17,2.72-.44,5.45-.74,8.21-.62,5.76-1.5,11.55-2.64,17.48-.22,1.19-.44,2.42-.7,3.65-.31,1.41-.62,2.81-.92,4.26-.62,2.81-1.28,5.62-1.94,8.52-.66,2.86-1.31,5.75-1.93,8.65-5.01,22.54-8.83,45.2-1.05,64.61,1.27,3.21,2.9,6.33,4.83,9.32,1.32,2.02,2.55,4.04,3.73,6.1,4.35,7.47,8.13,15.33,11.2,23.45,21.48,55.92,12.96,125.1-24.16,178.29h0Z"/>
  <path class="cls-2" d="M258.59,694.6l-14.01,10.63c-8.3-10.99-26.27-17.53-44.67-16.26-.79.05-1.58.14-2.37.22-12.35,1.28-22.8,5.8-30.09,12.83-.22.17-.4.39-.57.61-1.19,1.1-2.2,2.29-3.12,3.52-1.05,1.36-1.98,2.76-2.81,4.26-11.07,19.72-6.46,43.92,1.54,60.04,9.26,18.75,33.6,28.33,57.89,22.66.44-.08,3.47-1.01,5.75-1.67.4-.13.75-.21,1.1-.3.88-.27,1.32-.4,1.49-.44l.05.09c5.88-1.06,9.61.87,11.06,5.75,0,.04.05.09.05.13,1.71,5.98-1.72,8.79-6.2,10.67l.05.18-2.59.75c-1.01.35-2.02.66-2.99.92v-.04c-.48.13-.92.26-1.32.39-1.18.35-2.11.62-2.33.66-6.01,1.41-11.99,2.06-17.87,2.06-25.83,0-49.41-12.87-59.91-34.04-12.74-25.6-13.13-54.9-1.1-76.38.13-.22.26-.48.44-.7,9.93-17.26,29.08-28.07,52.62-29.69,24.46-1.67,47.96,7.42,59.91,23.15Z"/>
  <path class="cls-2" d="M949.88,410.15c-15.28,21.22-36.85,41.25-60.61,55.04-5.31,3.16-10.76,5.97-16.29,8.34-3.43,1.54-6.86,2.9-10.33,4.13-30,10.54-69.75,11.29-97.33-4.08-13.66-7.64-26.44-20.21-35.31-33.07-5.14-7.47-7.6-38.13-3.96-47.13-11.02,27.05-29.42,65.35-61.49,83.93-33.95,19.68-90.21,22.53-120.48-2.98-3.64-3.08-6.98-6.59-9.22-10.77-2.59-4.78-3.65-10.41-2.99-15.85,10.19,2.02,20.12,5.53,30.4,7.11,10.32,1.54,21.48.93,30.17-4.78,11.07-7.21,16.03-21.13,16.61-34.31.17-3.91,0-7.99-1.76-11.5-9.05-17.97-43.44-17.93-59.96-18.28-41.11-.83-82.44.97-115.6,28.77-32.06,26.88-51.92,57.06-20.47,93.69,9.23,10.72-8.56,12.25-14.45,11.99-32.15-1.36-65.93,29.82-75.1,58.24-16.7,51.7-7.3,103.39,5.31,154.74,2.2,8.78,11.16,31.49,2.06,36.81-20.16,11.77-61.97,6.45-61.97,6.45-11.95-15.02,8.92-85.25-69.57-87.45-.62,0-1.28-.04-1.89-.04-4.17-.04-15.59,2.85-22.71,7.86-2.24,1.58-4,3.34-5.49,5.01-.22.17-.4.39-.57.61-1.14,1.28-2.15,2.51-3.12,3.52-1.45,1.4-2.77,2.28-4.3,2.06-4.75-.66-9.45-3.69-13.4-7.07-5.89-5.05-10.1-10.85-10.1-10.85-2.73-.79-10.19-15.68-11.99-18.45-5.71-8.6-10.98-17.43-15.38-26.88-28.63-61.84-21.25-136.29.93-198.92.83-2.33,1.67-4.66,2.54-6.98,12.96-33.6,32.77-64.88,59.25-89.43,13.4-12.39,28.55-23.5,45.07-31.36,8.7-4.17,17.92-7.29,27.32-9.4,2.81-.66,26.92-3.38,27.05-4.08,9.01-38.13,31.06-68.48,55.39-97.03,2.99-3.51,6.11-6.94,9.31-10.23,47.48-48.89,116.05-74.58,183.16-79.59,80.07-5.93,146.92,27.71,220.09,54.86,43.14,15.99,121.76,47.17,160.67,9.57,21-20.29,33.03-51.12,29.03-80.29-1.14-8.12-13.3-27.49-10.14-34.26,5.01-10.71,22.36,23.5,24.86,27.76,8.04,13.71,15.02,28.03,20.95,42.74,33.12,82.79,40.28,196.24-14.19,271.83h0Z"/>
  <path class="cls-2" d="M533.1,689.63c-24.99,3.52-49.1-21.04-53.85-54.86-4.74-33.77,11.69-64.04,36.68-67.55,24.99-3.47,49.1,21.08,53.85,54.86,4.7,33.82-11.68,64.04-36.68,67.55Z"/>
  <path class="cls-2" d="M746.92,661.22c-24.99,3.51-49.06-21.09-53.81-54.86-4.74-33.82,11.69-64.04,36.68-67.56,24.99-3.51,49.06,21.04,53.8,54.86,4.75,33.82-11.68,64.04-36.67,67.56Z"/>
  <path class="cls-2" d="M701.59,692.58c-19.9-4.53-38.26-22.01-46.78-44.54-1.71-4.53-6.76-6.81-11.29-5.1-4.56,1.72-6.85,6.77-5.13,11.34,10.71,28.28,33.42,49.54,59.29,55.43.97.21,1.71.43,2.28.65-3.07,4.05-7.73,6.64-11.94,8.66-16.65,8.08-35.01,11.46-53.06,9.75-4.83-.44-9.09,3.07-9.53,7.9-.48,4.84,3.07,9.14,7.9,9.58,3.61.35,7.16.53,10.77.53,17.65,0,35.31-4.09,51.56-11.95,6.24-2.99,14.06-7.47,19.46-15.42,1.27-1.89,3.03-4.87,3.29-8.83.27-3.29-.26-14.23-16.82-18h0Z"/>
  <path class="cls-2" d="M933.94,638.55c-7.38,17.48-20.69,32.72-38.83,44.67-3.51,2.33-7.25,4.52-11.11,6.59l-8.26-15.5c3.38-1.8,7.07-3.95,10.8-6.5,11.82-7.95,24.29-19.68,31.19-36.06,6.15-14.49,8.48-34.08-3.34-45.72-5.05-4.96-13.18-7.82-21.3-7.91-2.77,0-5.58.31-8.21.97l-4.3-17c4.96-1.27,10.1-1.76,15.15-1.45,11.77.61,23.19,5.18,31.01,12.87,15.33,15.11,18.01,39.44,7.2,65.05h0Z"/>
  <path class="cls-2" d="M545.62,536.17c-2.28,4.3-7.6,5.93-11.86,3.69-10.19-5.36-22.4-6.85-33.55-4.13-11.16,2.72-21.31,9.75-27.85,19.19-1.71,2.46-4.44,3.78-7.25,3.78-1.71,0-3.47-.48-4.96-1.54-4-2.76-5.01-8.21-2.24-12.21,8.91-12.95,22.79-22.53,38.08-26.26,15.28-3.78,32.02-1.72,45.94,5.62,4.31,2.24,5.93,7.55,3.69,11.86h0Z"/>
  <path class="cls-2" d="M766.11,504.9c-2.24,4.3-7.55,5.97-11.86,3.68-10.14-5.35-22.4-6.85-33.55-4.08-11.16,2.72-21.31,9.71-27.81,19.15-1.71,2.5-4.48,3.82-7.24,3.82-1.72,0-3.47-.53-5.01-1.58-4-2.72-4.96-8.21-2.2-12.21,8.92-12.96,22.8-22.49,38.08-26.27,15.29-3.73,32.02-1.66,45.95,5.63,4.26,2.28,5.93,7.59,3.64,11.86h0Z"/>
  <path class="cls-2" d="M236.85,729.12c-1.28-5.84-3.52-13.22-9.75-17.92-3.96-2.99-9.05-4.48-14.85-4.48-6.9.09-12.47,2.63-15.72,7.25-.93,1.36-1.67,2.85-2.2,4.56-.4-.61-.83-1.18-1.27-1.71-4.4-5.23-11.47-7.11-17.22-4.65-3.69,1.58-6.46,4.78-7.6,8.78-1.36,4.61-.48,9.93,2.24,13.92,2.72,4,8.21,5.05,12.21,2.29.09-.05.22-.13.31-.22,1.14,3.03,2.46,5.97,3.86,8.87,3.74,7.73,9.97,9.18,14.5,7.95,2.06-.53,5.84-2.24,8.04-7.47,2.41-5.66,2.02-11.37,1.71-15.94-.13-1.98-.26-3.82-.18-5.4,0-.22.05-.4.05-.53.3-.04.79-.13,1.4-.13,1.63,0,3.3.35,4.13.96,1.85,1.37,2.81,5.89,3.16,7.6,2.95,13.53,2.11,24.16-2.5,31.58-.18.31-.4.53-.57.79-.26-1.01-.44-2.24-.66-3.47-.75-4.78-5.31-7.99-10.06-7.24-4.79.79-8.04,5.27-7.29,10.05.48,2.86,1.05,6.42,2.86,9.93,2.54,5.01,7.07,8.48,12.07,9.31.84.13,1.67.22,2.46.22,6.11,0,11.99-3.73,16.08-10.32,7.12-11.42,8.74-26.4,4.79-44.58h0Z"/>
  <path class="cls-2" d="M912.11,619.31c-.53,6.19-2.33,12.65-5.53,19.77-1.45,3.21-4.66,5.14-7.99,5.14-1.23,0-2.46-.26-3.64-.79-4.39-1.98-6.37-7.2-4.35-11.64,2.37-5.18,3.64-9.71,4-13.84.35-4.44-.48-8.56-2.37-11.64-.79-1.32-1.67-2.28-2.46-2.64-.53-.26-1.32-.4-2.15-.48-1.14-.13-2.42-.13-3.47-.13-4.88,0-8.78-3.95-8.74-8.83,0-4.83,3.95-8.74,8.78-8.74,1.98,0,4.52,0,7.29.53,1.84.31,3.82.83,5.75,1.76,3.95,1.84,7.42,5.09,10.01,9.4,3.82,6.28,5.49,13.97,4.88,22.14h-.01Z"/>
  <path class="cls-2" d="M790.05,775.19c-7.91-17.83-24.16-22.44-39.97-11.64-6.15,4.18-12.08,8.57-18.23,12.7-40.01,26.83-83.19,37.29-131.19,27.76-19.77-3.91-39.84-7.51-60.31-6.5-25.43,1.18-40.8,18.84-38.65,44.09,2.02,23.9,14.19,40.68,34.87,51.92,31.5,17.13,65.54,24.11,95.1,25.17,39.83-.27,71.5-7.86,100.4-26.36,31.01-19.85,54.99-44.66,61.32-82.7,1.93-11.82,1.53-23.41-3.34-34.44ZM682.48,892.6c-.92,4.83-6.72,4.52-10.71,5.36-10.28,2.15-20.69,3.47-31.28,2.85-26.96-.48-53.36-4.3-78.18-15.63-2.68-1.23-6.41-2.07-5.97-6.11.26-2.68,3.16-3.25,5.27-4,38.87-13.48,76.86-14.89,112.84,8.7,3.38,2.2,9.04,3.91,8.03,8.83Z"/>
  <path class="cls-1" d="M682.48,892.6c-.92,4.83-6.72,4.52-10.72,5.36-10.28,2.15-20.69,3.47-31.27,2.86-26.97-.48-53.37-4.3-78.18-15.64-2.68-1.23-6.41-2.06-5.97-6.11.26-2.68,3.16-3.25,5.27-4,38.87-13.48,76.86-14.89,112.84,8.7,3.38,2.2,9.05,3.91,8.04,8.83h-.01Z"/>
  <path class="cls-4" d="M917.73,631.74c-6.9,16.38-19.37,28.11-31.19,36.06-7.77-19.41-3.95-42.08,1.05-64.61.83.09,1.63.22,2.15.48.79.35,1.67,1.32,2.46,2.64,1.89,3.07,2.72,7.2,2.37,11.64-.35,4.13-1.63,8.65-4,13.84-2.02,4.44-.04,9.66,4.35,11.64,1.19.53,2.42.79,3.64.79,3.34,0,6.54-1.93,7.99-5.14,3.21-7.12,5.01-13.57,5.53-19.77.61-8.17-1.05-15.86-4.88-22.14-2.59-4.3-6.06-7.55-10.01-9.4-1.93-.92-3.91-1.45-5.75-1.76.31-1.45.61-2.85.92-4.26.26-1.23.48-2.46.7-3.65,8.13.09,16.25,2.94,21.3,7.91,11.81,11.64,9.49,31.23,3.34,45.72h.03Z"/>
  <path class="cls-4" d="M886.55,667.8c-7.77-19.41-3.95-42.08,1.05-64.61.83.09,1.63.22,2.15.48.79.35,1.67,1.32,2.46,2.64,1.89,3.07,2.72,7.2,2.37,11.64-.35,4.13-1.63,8.65-4,13.84-2.02,4.44-.04,9.66,4.35,11.64,1.19.53,2.42.79,3.64.79,3.34,0,6.54-1.93,7.99-5.14,3.21-7.12,5.01-13.57,5.53-19.77.61-8.17-1.05-15.86-4.88-22.14-2.59-4.3-6.06-7.55-10.01-9.4-1.93-.92-3.91-1.45-5.75-1.76.31-1.45.61-2.85.92-4.26.26-1.23.48-2.46.7-3.65,8.13.09,16.25,2.94,21.3,7.91,11.81,11.64,9.49,31.23,3.34,45.72-6.9,16.38-19.37,28.11-31.19,36.06h.03Z"/>
</svg>